<?xml version="1.0" encoding="utf-8"?><svg viewBox="0 0 62 62" xmlns="http://www.w3.org/2000/svg" xmlns:xlink="http://www.w3.org/1999/xlink"><style>:root>svg{display:none}:root>svg:target{display:block}</style><svg fill="none" viewBox="0 0 62 62" id="BMW_logo" xmlns="http://www.w3.org/2000/svg"><g clip-path="url(#aa)"><mask id="ab" style="mask-type:luminance" maskUnits="userSpaceOnUse" x="0" y="0" width="62" height="62"><path d="M62 0H0v62h62V0z" fill="#fff"/></mask><g mask="url(#ab)"><path d="M49.37 31c0 10.153-8.217 18.37-18.37 18.37V31h18.37zM31 12.63V31H12.63c0-10.152 8.218-18.37 18.37-18.37z" fill="#0166B1"/><path d="M31 12.63c10.153 0 18.37 8.218 18.37 18.37H31V12.63zM12.63 31H31v18.37c-10.152 0-18.37-8.217-18.37-18.37z" fill="#fff"/><path d="M31 12.63v1.007c9.573 0 17.363 7.788 17.363 17.363h1.007c0-10.145-8.225-18.37-18.37-18.37zm0 35.733c-9.573 0-17.363-7.788-17.363-17.363H12.63c0 10.145 8.225 18.37 18.37 18.37M31 0C13.88 0 0 13.88 0 31c0 17.12 13.88 31 31 31 17.12 0 31-13.88 31-31C62 13.88 48.12 0 31 0zm28.984 31c0 16.007-12.975 28.984-28.984 28.984C14.992 59.984 2.016 47.007 2.016 31S14.993 2.016 31 2.016 59.984 14.993 59.984 31z" fill="#6F6F6F"/><path d="M17.753 16.045c.99-1.036 1.551-2.233.56-3.376-.538-.62-1.443-.756-2.194-.45l-.074.029.023-.065c.111-.295.182-1.236-.624-1.885-.394-.316-.887-.434-1.386-.383-.93.094-1.646.725-3.595 2.883a46.698 46.698 0 0 0-1.957 2.343l5.352 5.042c1.773-1.95 2.496-2.674 3.895-4.138zm-6.984-1.233c1.078-1.31 2.224-2.497 2.743-2.968.164-.148.342-.296.559-.354.351-.096.714.152.796.51.081.36-.146.702-.4.984-.57.638-2.66 2.81-2.66 2.81l-1.038-.982zm2.096 1.975s2.036-2.138 2.7-2.821c.265-.271.434-.436.616-.525.235-.114.492-.137.721.015a.63.63 0 0 1 .274.665c-.068.306-.32.597-.527.82l-2.698 2.868-1.086-1.022zm18.747-6.755 1.714-3.812.11-.338-.032.353.18 5.094c.601.056 1.222.14 1.834.24l-.278-7.544a38.283 38.283 0 0 0-2.56-.197l-1.689 4.16-.06.31-.06-.31-1.686-4.16a38.29 38.29 0 0 0-2.56.197l-.28 7.545a27.405 27.405 0 0 1 1.835-.241l.18-5.094-.03-.353.108.338 1.714 3.812h1.56zm14.232 7.887c.42.448 1.026 1.172 1.367 1.611l6.272-3.953a41.558 41.558 0 0 0-1.186-1.461l-3.972 2.608-.27.231.201-.293 1.754-3.476-1.24-1.231-3.502 1.741-.295.201.235-.27 2.628-3.942c-.463-.39-.907-.749-1.474-1.183l-3.98 6.223c.504.386 1.169.952 1.593 1.337l3.748-1.932.24-.175-.177.239-1.943 3.725z" fill="#6F6F6F"/></g></g><defs><clipPath id="aa"><path fill="#fff" d="M0 0h62v62H0z"/></clipPath></defs></svg></svg>